<?xml version="1.0" encoding="UTF-8"?>
<!DOCTYPE svg PUBLIC "-//W3C//DTD SVG 1.1//EN" "http://www.w3.org/Graphics/SVG/1.1/DTD/svg11.dtd">
<svg xmlns="http://www.w3.org/2000/svg" version="1.1" width="500px" height="500px" style="shape-rendering:geometricPrecision; text-rendering:geometricPrecision; image-rendering:optimizeQuality; fill-rule:evenodd; clip-rule:evenodd" xmlns:xlink="http://www.w3.org/1999/xlink">
<g><path style="opacity:1" fill="#cf401d" d="M 356.5,82.5 C 357.035,84.4456 358.368,85.4456 360.5,85.5C 373.51,93.8525 385.177,103.852 395.5,115.5C 395.738,117.404 396.738,118.738 398.5,119.5C 399.833,120.167 400.833,121.167 401.5,122.5C 401.427,124.027 402.094,125.027 403.5,125.5C 404.5,125.833 405.167,126.5 405.5,127.5C 405.427,129.027 406.094,130.027 407.5,130.5C 411.237,134.302 414.237,138.635 416.5,143.5C 416.427,145.027 417.094,146.027 418.5,146.5C 418.427,148.027 419.094,149.027 420.5,149.5C 448.425,198.635 454.925,250.635 440,305.5C 419.374,371.124 376.708,415.458 312,438.5C 255.785,455.769 201.952,450.436 150.5,422.5C 150.027,421.094 149.027,420.427 147.5,420.5C 146.508,420.672 145.842,420.338 145.5,419.5C 145.027,418.094 144.027,417.427 142.5,417.5C 142.027,416.094 141.027,415.427 139.5,415.5C 139.027,414.094 138.027,413.427 136.5,413.5C 133.467,411.984 130.8,409.984 128.5,407.5C 128.027,406.094 127.027,405.427 125.5,405.5C 121.88,403.547 118.88,400.881 116.5,397.5C 116.027,396.094 115.027,395.427 113.5,395.5C 65.3472,349.568 44.5139,293.234 51,226.5C 52.1359,216.988 53.9692,207.655 56.5,198.5C 58.4725,195.916 59.4725,192.916 59.5,189.5C 63.9076,172.357 71.2409,156.69 81.5,142.5C 82.9063,142.027 83.573,141.027 83.5,139.5C 84.7859,136.883 86.4525,134.55 88.5,132.5C 89.9063,132.027 90.573,131.027 90.5,129.5C 94.1347,123.899 98.4681,118.899 103.5,114.5C 105.587,113.415 106.92,111.749 107.5,109.5C 110.089,108.581 112.089,106.914 113.5,104.5C 113.5,103.167 114.167,102.5 115.5,102.5C 118.427,101.243 120.761,99.2427 122.5,96.5C 124.749,95.9202 126.415,94.5869 127.5,92.5C 129.296,90.1 131.63,88.4333 134.5,87.5C 136.404,87.2624 137.738,86.2624 138.5,84.5C 144.334,80.0791 150.668,76.4124 157.5,73.5C 159.027,73.573 160.027,72.9063 160.5,71.5C 167.321,67.4286 174.654,64.4286 182.5,62.5C 187.165,61.9431 191.498,60.6098 195.5,58.5C 198.152,58.5905 200.485,57.9238 202.5,56.5C 257.485,43.8986 308.818,52.5653 356.5,82.5 Z M 316.5,150.5 C 316.973,151.906 317.973,152.573 319.5,152.5C 319.833,153.5 320.5,154.167 321.5,154.5C 321.973,155.906 322.973,156.573 324.5,156.5C 334.944,165.944 343.944,176.611 351.5,188.5C 351.932,189.71 352.599,190.71 353.5,191.5C 374.404,232.741 373.404,273.407 350.5,313.5C 349.094,313.973 348.427,314.973 348.5,316.5C 347.094,316.973 346.427,317.973 346.5,319.5C 344.844,321.46 343.177,323.46 341.5,325.5C 340.094,325.973 339.427,326.973 339.5,328.5C 335.167,332.167 331.167,336.167 327.5,340.5C 325.251,341.08 323.585,342.413 322.5,344.5C 320.973,344.427 319.973,345.094 319.5,346.5C 309.888,353.14 299.555,358.473 288.5,362.5C 285.603,363.129 282.936,364.129 280.5,365.5C 234.2,375.838 194.2,364.505 160.5,331.5C 160.262,329.596 159.262,328.262 157.5,327.5C 155.183,323.854 152.516,320.52 149.5,317.5C 149.573,315.973 148.906,314.973 147.5,314.5C 119.853,265.111 123.02,217.778 157,172.5C 193.792,133.26 237.959,121.427 289.5,137C 299.107,140.479 308.107,144.979 316.5,150.5 Z"/></g>
<g><path style="opacity:0.945" fill="#e79079" d="M 202.5,56.5 C 200.485,57.9238 198.152,58.5905 195.5,58.5C 197.515,57.0762 199.848,56.4095 202.5,56.5 Z"/></g>
<g><path style="opacity:0.992" fill="#e58368" d="M 195.5,58.5 C 191.498,60.6098 187.165,61.9431 182.5,62.5C 186.502,60.3902 190.835,59.0569 195.5,58.5 Z"/></g>
<g><path style="opacity:0.8" fill="#eba08c" d="M 160.5,71.5 C 160.027,72.9063 159.027,73.573 157.5,73.5C 157.973,72.0937 158.973,71.427 160.5,71.5 Z"/></g>
<g><path style="opacity:0.949" fill="#efa38e" d="M 356.5,82.5 C 358.23,83.0256 359.564,84.0256 360.5,85.5C 358.368,85.4456 357.035,84.4456 356.5,82.5 Z"/></g>
<g><path style="opacity:0.69" fill="#eca08d" d="M 138.5,84.5 C 137.738,86.2624 136.404,87.2624 134.5,87.5C 135.262,85.7376 136.596,84.7376 138.5,84.5 Z"/></g>
<g><path style="opacity:0.988" fill="#e5846a" d="M 127.5,92.5 C 126.415,94.5869 124.749,95.9202 122.5,96.5C 123.585,94.4131 125.251,93.0798 127.5,92.5 Z"/></g>
<g><path style="opacity:0.906" fill="#e7896f" d="M 122.5,96.5 C 120.761,99.2427 118.427,101.243 115.5,102.5C 117.239,99.7573 119.573,97.7573 122.5,96.5 Z"/></g>
<g><path style="opacity:0.737" fill="#eda28e" d="M 113.5,104.5 C 112.089,106.914 110.089,108.581 107.5,109.5C 108.911,107.086 110.911,105.419 113.5,104.5 Z"/></g>
<g><path style="opacity:0.655" fill="#efab9a" d="M 107.5,109.5 C 106.92,111.749 105.587,113.415 103.5,114.5C 104.08,112.251 105.413,110.585 107.5,109.5 Z"/></g>
<g><path style="opacity:0.859" fill="#efa591" d="M 395.5,115.5 C 397.262,116.262 398.262,117.596 398.5,119.5C 396.738,118.738 395.738,117.404 395.5,115.5 Z"/></g>
<g><path style="opacity:0.851" fill="#ec9b85" d="M 401.5,122.5 C 402.906,122.973 403.573,123.973 403.5,125.5C 402.094,125.027 401.427,124.027 401.5,122.5 Z"/></g>
<g><path style="opacity:0.804" fill="#eda28f" d="M 405.5,127.5 C 406.906,127.973 407.573,128.973 407.5,130.5C 406.094,130.027 405.427,129.027 405.5,127.5 Z"/></g>
<g><path style="opacity:0.549" fill="#eda795" d="M 90.5,129.5 C 90.573,131.027 89.9063,132.027 88.5,132.5C 88.427,130.973 89.0937,129.973 90.5,129.5 Z"/></g>
<g><path style="opacity:0.463" fill="#eeaf9f" d="M 83.5,139.5 C 83.573,141.027 82.9063,142.027 81.5,142.5C 81.427,140.973 82.0937,139.973 83.5,139.5 Z"/></g>
<g><path style="opacity:1" fill="#cf401d" d="M 305.5,157.5 C 305.821,159.048 306.821,159.715 308.5,159.5C 313.909,162.734 318.909,166.568 323.5,171C 326.754,173.747 329.42,176.914 331.5,180.5C 331.738,182.404 332.738,183.738 334.5,184.5C 336.547,186.55 338.214,188.883 339.5,191.5C 339.427,193.027 340.094,194.027 341.5,194.5C 346.176,201.525 349.509,209.192 351.5,217.5C 351.41,220.152 352.076,222.485 353.5,224.5C 363.214,274.195 347.214,313.362 305.5,342C 266.117,363.211 227.117,362.545 188.5,340C 182.373,336.04 177.04,331.207 172.5,325.5C 172.027,324.094 171.027,323.427 169.5,323.5C 142.826,292.987 134.659,257.987 145,218.5C 148.345,206.565 153.845,195.899 161.5,186.5C 162.906,186.027 163.573,185.027 163.5,183.5C 163.833,182.5 164.5,181.833 165.5,181.5C 166.906,181.027 167.573,180.027 167.5,178.5C 173.648,170.678 180.981,164.344 189.5,159.5C 191.027,159.573 192.027,158.906 192.5,157.5C 193.514,156.326 194.847,155.66 196.5,155.5C 198.027,155.573 199.027,154.906 199.5,153.5C 235.529,136.422 270.862,137.755 305.5,157.5 Z"/></g>
<g><path style="opacity:0.62" fill="#ea9984" d="M 416.5,143.5 C 417.906,143.973 418.573,144.973 418.5,146.5C 417.094,146.027 416.427,145.027 416.5,143.5 Z"/></g>
<g><path style="opacity:0.412" fill="#efb2a2" d="M 418.5,146.5 C 419.906,146.973 420.573,147.973 420.5,149.5C 419.094,149.027 418.427,148.027 418.5,146.5 Z"/></g>
<g><path style="opacity:0.608" fill="#eb9d88" d="M 316.5,150.5 C 318.027,150.427 319.027,151.094 319.5,152.5C 317.973,152.573 316.973,151.906 316.5,150.5 Z"/></g>
<g><path style="opacity:0.843" fill="#ea9984" d="M 199.5,153.5 C 199.027,154.906 198.027,155.573 196.5,155.5C 196.973,154.094 197.973,153.427 199.5,153.5 Z"/></g>
<g><path style="opacity:0.698" fill="#f0b1a1" d="M 321.5,154.5 C 323.027,154.427 324.027,155.094 324.5,156.5C 322.973,156.573 321.973,155.906 321.5,154.5 Z"/></g>
<g><path style="opacity:0.839" fill="#ea9a85" d="M 192.5,157.5 C 192.027,158.906 191.027,159.573 189.5,159.5C 189.973,158.094 190.973,157.427 192.5,157.5 Z"/></g>
<g><path style="opacity:0.953" fill="#ee9d86" d="M 305.5,157.5 C 306.71,157.932 307.71,158.599 308.5,159.5C 306.821,159.715 305.821,159.048 305.5,157.5 Z"/></g>
<g><path style="opacity:0.78" fill="#efa694" d="M 167.5,178.5 C 167.573,180.027 166.906,181.027 165.5,181.5C 165.427,179.973 166.094,178.973 167.5,178.5 Z"/></g>
<g><path style="opacity:0.91" fill="#ec9c86" d="M 331.5,180.5 C 333.262,181.262 334.262,182.596 334.5,184.5C 332.738,183.738 331.738,182.404 331.5,180.5 Z"/></g>
<g><path style="opacity:0.58" fill="#eda593" d="M 163.5,183.5 C 163.573,185.027 162.906,186.027 161.5,186.5C 161.427,184.973 162.094,183.973 163.5,183.5 Z"/></g>
<g><path style="opacity:0.937" fill="#efa28c" d="M 351.5,188.5 C 353.048,188.821 353.715,189.821 353.5,191.5C 352.599,190.71 351.932,189.71 351.5,188.5 Z"/></g>
<g><path style="opacity:0.976" fill="#e9937c" d="M 59.5,189.5 C 59.4725,192.916 58.4725,195.916 56.5,198.5C 56.9281,195.215 57.9281,192.215 59.5,189.5 Z"/></g>
<g><path style="opacity:0.494" fill="#eea998" d="M 339.5,191.5 C 340.906,191.973 341.573,192.973 341.5,194.5C 340.094,194.027 339.427,193.027 339.5,191.5 Z"/></g>
<g><path style="opacity:0.78" fill="#e68b73" d="M 351.5,217.5 C 352.924,219.515 353.59,221.848 353.5,224.5C 352.076,222.485 351.41,220.152 351.5,217.5 Z"/></g>
<g><path style="opacity:0.467" fill="#eeab99" d="M 350.5,313.5 C 350.573,315.027 349.906,316.027 348.5,316.5C 348.427,314.973 349.094,313.973 350.5,313.5 Z"/></g>
<g><path style="opacity:0.471" fill="#eead9c" d="M 147.5,314.5 C 148.906,314.973 149.573,315.973 149.5,317.5C 148.094,317.027 147.427,316.027 147.5,314.5 Z"/></g>
<g><path style="opacity:0.588" fill="#eca28f" d="M 348.5,316.5 C 348.573,318.027 347.906,319.027 346.5,319.5C 346.427,317.973 347.094,316.973 348.5,316.5 Z"/></g>
<g><path style="opacity:0.604" fill="#f1b5a7" d="M 169.5,323.5 C 171.027,323.427 172.027,324.094 172.5,325.5C 170.973,325.573 169.973,324.906 169.5,323.5 Z"/></g>
<g><path style="opacity:0.714" fill="#f0ac9b" d="M 341.5,325.5 C 341.573,327.027 340.906,328.027 339.5,328.5C 339.427,326.973 340.094,325.973 341.5,325.5 Z"/></g>
<g><path style="opacity:0.776" fill="#f0ac9a" d="M 157.5,327.5 C 159.262,328.262 160.262,329.596 160.5,331.5C 158.738,330.738 157.738,329.404 157.5,327.5 Z"/></g>
<g><path style="opacity:0.965" fill="#e5846a" d="M 327.5,340.5 C 326.415,342.587 324.749,343.92 322.5,344.5C 323.585,342.413 325.251,341.08 327.5,340.5 Z"/></g>
<g><path style="opacity:0.796" fill="#eb9b86" d="M 322.5,344.5 C 322.027,345.906 321.027,346.573 319.5,346.5C 319.973,345.094 320.973,344.427 322.5,344.5 Z"/></g>
<g><path style="opacity:0.929" fill="#e78d75" d="M 288.5,362.5 C 286.383,364.655 283.716,365.655 280.5,365.5C 282.936,364.129 285.603,363.129 288.5,362.5 Z"/></g>
<g><path style="opacity:0.737" fill="#efab9a" d="M 113.5,395.5 C 115.027,395.427 116.027,396.094 116.5,397.5C 114.973,397.573 113.973,396.906 113.5,395.5 Z"/></g>
<g><path style="opacity:0.812" fill="#eda18c" d="M 125.5,405.5 C 127.027,405.427 128.027,406.094 128.5,407.5C 126.973,407.573 125.973,406.906 125.5,405.5 Z"/></g>
<g><path style="opacity:0.541" fill="#eca390" d="M 136.5,413.5 C 138.027,413.427 139.027,414.094 139.5,415.5C 137.973,415.573 136.973,414.906 136.5,413.5 Z"/></g>
<g><path style="opacity:0.498" fill="#eea997" d="M 139.5,415.5 C 141.027,415.427 142.027,416.094 142.5,417.5C 140.973,417.573 139.973,416.906 139.5,415.5 Z"/></g>
<g><path style="opacity:0.459" fill="#eeae9e" d="M 142.5,417.5 C 144.027,417.427 145.027,418.094 145.5,419.5C 143.973,419.573 142.973,418.906 142.5,417.5 Z"/></g>
<g><path style="opacity:0.396" fill="#f0b4a5" d="M 147.5,420.5 C 149.027,420.427 150.027,421.094 150.5,422.5C 148.973,422.573 147.973,421.906 147.5,420.5 Z"/></g>
</svg>
